<mxfile host="Electron" agent="Mozilla/5.0 (Windows NT 10.0; Win64; x64) AppleWebKit/537.36 (KHTML, like Gecko) draw.io/24.7.8 Chrome/128.0.6613.36 Electron/32.0.1 Safari/537.36" version="24.7.8">
  <diagram name="Page-1" id="_JQilSIzMUZC6DLlsPZm">
    <mxGraphModel dx="1034" dy="511" grid="1" gridSize="10" guides="1" tooltips="1" connect="1" arrows="1" fold="1" page="1" pageScale="1" pageWidth="850" pageHeight="1100" math="0" shadow="0">
      <root>
        <mxCell id="0" />
        <mxCell id="1" parent="0" />
        <mxCell id="9iZS7P3XMjoNwgaLE-xn-1" value="&lt;font style=&quot;font-size: 23px;&quot;&gt;Stylesurfer&lt;/font&gt;" style="shape=ellipse;html=1;dashed=0;whiteSpace=wrap;aspect=fixed;perimeter=ellipsePerimeter;" parent="1" vertex="1">
          <mxGeometry x="330" y="455" width="190" height="190" as="geometry" />
        </mxCell>
        <mxCell id="9iZS7P3XMjoNwgaLE-xn-2" value="&lt;font style=&quot;font-size: 20px;&quot;&gt;Delivery&lt;/font&gt;&lt;div style=&quot;font-size: 20px;&quot;&gt;&lt;font style=&quot;font-size: 20px;&quot;&gt;Partner&lt;/font&gt;&lt;/div&gt;" style="rounded=0;whiteSpace=wrap;html=1;" parent="1" vertex="1">
          <mxGeometry x="100" y="780" width="120" height="60" as="geometry" />
        </mxCell>
        <mxCell id="9iZS7P3XMjoNwgaLE-xn-8" value="" style="endArrow=classic;html=1;rounded=0;entryX=0.863;entryY=-0.021;entryDx=0;entryDy=0;entryPerimeter=0;exitX=0.261;exitY=0.945;exitDx=0;exitDy=0;exitPerimeter=0;" parent="1" edge="1">
          <mxGeometry width="50" height="50" relative="1" as="geometry">
            <mxPoint x="386.03000000000003" y="635.81" as="sourcePoint" />
            <mxPoint x="209.99999999999994" y="780.0000000000001" as="targetPoint" />
            <Array as="points">
              <mxPoint x="386.44" y="741.26" />
              <mxPoint x="286.44" y="741.26" />
              <mxPoint x="210.44" y="741.26" />
            </Array>
          </mxGeometry>
        </mxCell>
        <mxCell id="9iZS7P3XMjoNwgaLE-xn-11" value="&lt;font style=&quot;font-size: 17px;&quot;&gt;View Orders&lt;/font&gt;" style="text;html=1;align=center;verticalAlign=middle;resizable=0;points=[];autosize=1;strokeColor=none;fillColor=none;" parent="1" vertex="1">
          <mxGeometry x="230" y="710" width="120" height="30" as="geometry" />
        </mxCell>
        <mxCell id="9iZS7P3XMjoNwgaLE-xn-12" value="&lt;font style=&quot;font-size: 17px;&quot;&gt;Details&lt;/font&gt;" style="text;html=1;align=center;verticalAlign=middle;resizable=0;points=[];autosize=1;strokeColor=none;fillColor=none;" parent="1" vertex="1">
          <mxGeometry x="250" y="740" width="80" height="30" as="geometry" />
        </mxCell>
        <mxCell id="9iZS7P3XMjoNwgaLE-xn-14" value="&lt;font style=&quot;font-size: 17px;&quot;&gt;Login&lt;/font&gt;" style="text;html=1;align=center;verticalAlign=middle;resizable=0;points=[];autosize=1;strokeColor=none;fillColor=none;" parent="1" vertex="1">
          <mxGeometry x="180" y="680" width="70" height="30" as="geometry" />
        </mxCell>
        <mxCell id="9iZS7P3XMjoNwgaLE-xn-15" style="edgeStyle=orthogonalEdgeStyle;rounded=0;orthogonalLoop=1;jettySize=auto;html=1;exitX=0.25;exitY=0;exitDx=0;exitDy=0;entryX=0.106;entryY=0.81;entryDx=0;entryDy=0;entryPerimeter=0;" parent="1" source="9iZS7P3XMjoNwgaLE-xn-2" target="9iZS7P3XMjoNwgaLE-xn-1" edge="1">
          <mxGeometry relative="1" as="geometry">
            <Array as="points">
              <mxPoint x="130" y="680" />
              <mxPoint x="350" y="680" />
            </Array>
          </mxGeometry>
        </mxCell>
        <mxCell id="9iZS7P3XMjoNwgaLE-xn-16" style="edgeStyle=orthogonalEdgeStyle;rounded=0;orthogonalLoop=1;jettySize=auto;html=1;exitX=0.5;exitY=0;exitDx=0;exitDy=0;entryX=0.212;entryY=0.91;entryDx=0;entryDy=0;entryPerimeter=0;" parent="1" source="9iZS7P3XMjoNwgaLE-xn-2" target="9iZS7P3XMjoNwgaLE-xn-1" edge="1">
          <mxGeometry relative="1" as="geometry" />
        </mxCell>
        <mxCell id="9iZS7P3XMjoNwgaLE-xn-17" value="&lt;font style=&quot;font-size: 17px;&quot;&gt;Ragistration&lt;/font&gt;" style="text;html=1;align=center;verticalAlign=middle;resizable=0;points=[];autosize=1;strokeColor=none;fillColor=none;" parent="1" vertex="1">
          <mxGeometry x="175" y="650" width="110" height="30" as="geometry" />
        </mxCell>
        <mxCell id="_nSsII40wZUim3STC4YT-2" style="edgeStyle=orthogonalEdgeStyle;rounded=0;orthogonalLoop=1;jettySize=auto;html=1;entryX=0;entryY=0.5;entryDx=0;entryDy=0;exitX=0.5;exitY=1;exitDx=0;exitDy=0;" parent="1" source="_nSsII40wZUim3STC4YT-1" target="9iZS7P3XMjoNwgaLE-xn-1" edge="1">
          <mxGeometry relative="1" as="geometry" />
        </mxCell>
        <mxCell id="_nSsII40wZUim3STC4YT-12" style="edgeStyle=orthogonalEdgeStyle;rounded=0;orthogonalLoop=1;jettySize=auto;html=1;exitX=0.75;exitY=0;exitDx=0;exitDy=0;entryX=0.5;entryY=0;entryDx=0;entryDy=0;" parent="1" source="_nSsII40wZUim3STC4YT-1" target="9iZS7P3XMjoNwgaLE-xn-1" edge="1">
          <mxGeometry relative="1" as="geometry" />
        </mxCell>
        <mxCell id="_nSsII40wZUim3STC4YT-1" value="&lt;font style=&quot;font-size: 20px;&quot;&gt;Customer&lt;/font&gt;" style="rounded=0;whiteSpace=wrap;html=1;" parent="1" vertex="1">
          <mxGeometry x="100" y="420" width="120" height="60" as="geometry" />
        </mxCell>
        <mxCell id="_nSsII40wZUim3STC4YT-3" value="&lt;font style=&quot;font-size: 17px;&quot;&gt;Rent Product&lt;/font&gt;" style="text;html=1;align=center;verticalAlign=middle;resizable=0;points=[];autosize=1;strokeColor=none;fillColor=none;" parent="1" vertex="1">
          <mxGeometry x="180" y="520" width="120" height="30" as="geometry" />
        </mxCell>
        <mxCell id="_nSsII40wZUim3STC4YT-4" style="edgeStyle=orthogonalEdgeStyle;rounded=0;orthogonalLoop=1;jettySize=auto;html=1;exitX=0.25;exitY=1;exitDx=0;exitDy=0;entryX=0.25;entryY=1;entryDx=0;entryDy=0;" parent="1" source="_nSsII40wZUim3STC4YT-1" target="_nSsII40wZUim3STC4YT-1" edge="1">
          <mxGeometry relative="1" as="geometry" />
        </mxCell>
        <mxCell id="_nSsII40wZUim3STC4YT-6" value="" style="endArrow=classic;html=1;rounded=0;exitX=0.023;exitY=0.64;exitDx=0;exitDy=0;exitPerimeter=0;entryX=0.25;entryY=1;entryDx=0;entryDy=0;" parent="1" source="9iZS7P3XMjoNwgaLE-xn-1" target="_nSsII40wZUim3STC4YT-1" edge="1">
          <mxGeometry width="50" height="50" relative="1" as="geometry">
            <mxPoint x="330" y="570" as="sourcePoint" />
            <mxPoint x="380" y="520" as="targetPoint" />
            <Array as="points">
              <mxPoint x="130" y="576" />
            </Array>
          </mxGeometry>
        </mxCell>
        <mxCell id="_nSsII40wZUim3STC4YT-8" value="&lt;font style=&quot;font-size: 17px;&quot;&gt;Notification&lt;/font&gt;" style="text;html=1;align=center;verticalAlign=middle;resizable=0;points=[];autosize=1;strokeColor=none;fillColor=none;" parent="1" vertex="1">
          <mxGeometry x="175" y="548" width="110" height="30" as="geometry" />
        </mxCell>
        <mxCell id="_nSsII40wZUim3STC4YT-9" value="" style="endArrow=classic;html=1;rounded=0;exitX=0.027;exitY=0.338;exitDx=0;exitDy=0;exitPerimeter=0;entryX=0.833;entryY=1;entryDx=0;entryDy=0;entryPerimeter=0;" parent="1" source="9iZS7P3XMjoNwgaLE-xn-1" target="_nSsII40wZUim3STC4YT-1" edge="1">
          <mxGeometry width="50" height="50" relative="1" as="geometry">
            <mxPoint x="330" y="520" as="sourcePoint" />
            <mxPoint x="380" y="470" as="targetPoint" />
            <Array as="points">
              <mxPoint x="200" y="520" />
            </Array>
          </mxGeometry>
        </mxCell>
        <mxCell id="_nSsII40wZUim3STC4YT-10" value="&lt;font style=&quot;font-size: 17px;&quot;&gt;View Product&lt;/font&gt;" style="text;html=1;align=center;verticalAlign=middle;resizable=0;points=[];autosize=1;strokeColor=none;fillColor=none;" parent="1" vertex="1">
          <mxGeometry x="210" y="490" width="120" height="30" as="geometry" />
        </mxCell>
        <mxCell id="_nSsII40wZUim3STC4YT-13" style="edgeStyle=orthogonalEdgeStyle;rounded=0;orthogonalLoop=1;jettySize=auto;html=1;exitX=1;exitY=0.25;exitDx=0;exitDy=0;entryX=0.332;entryY=0.027;entryDx=0;entryDy=0;entryPerimeter=0;" parent="1" source="_nSsII40wZUim3STC4YT-1" target="9iZS7P3XMjoNwgaLE-xn-1" edge="1">
          <mxGeometry relative="1" as="geometry">
            <Array as="points">
              <mxPoint x="393" y="435" />
            </Array>
          </mxGeometry>
        </mxCell>
        <mxCell id="_nSsII40wZUim3STC4YT-14" value="&lt;font style=&quot;font-size: 17px;&quot;&gt;Login&lt;/font&gt;" style="text;html=1;align=center;verticalAlign=middle;resizable=0;points=[];autosize=1;strokeColor=none;fillColor=none;" parent="1" vertex="1">
          <mxGeometry x="265" y="408" width="70" height="30" as="geometry" />
        </mxCell>
        <mxCell id="_nSsII40wZUim3STC4YT-15" value="&lt;font style=&quot;font-size: 17px;&quot;&gt;Registnation&lt;/font&gt;" style="text;html=1;align=center;verticalAlign=middle;resizable=0;points=[];autosize=1;strokeColor=none;fillColor=none;" parent="1" vertex="1">
          <mxGeometry x="230" y="368" width="120" height="30" as="geometry" />
        </mxCell>
        <mxCell id="_nSsII40wZUim3STC4YT-22" value="&lt;font style=&quot;font-size: 17px;&quot;&gt;Admin&lt;/font&gt;" style="rounded=0;whiteSpace=wrap;html=1;" parent="1" vertex="1">
          <mxGeometry x="640" y="480" width="120" height="60" as="geometry" />
        </mxCell>
        <mxCell id="_nSsII40wZUim3STC4YT-23" style="edgeStyle=orthogonalEdgeStyle;rounded=0;orthogonalLoop=1;jettySize=auto;html=1;exitX=0;exitY=0.25;exitDx=0;exitDy=0;entryX=0.941;entryY=0.268;entryDx=0;entryDy=0;entryPerimeter=0;" parent="1" source="_nSsII40wZUim3STC4YT-22" target="9iZS7P3XMjoNwgaLE-xn-1" edge="1">
          <mxGeometry relative="1" as="geometry">
            <mxPoint x="510" y="506" as="targetPoint" />
          </mxGeometry>
        </mxCell>
        <mxCell id="_nSsII40wZUim3STC4YT-24" value="&lt;font style=&quot;font-size: 17px;&quot;&gt;Login&lt;/font&gt;" style="text;html=1;align=center;verticalAlign=middle;resizable=0;points=[];autosize=1;strokeColor=none;fillColor=none;" parent="1" vertex="1">
          <mxGeometry x="575" y="468" width="70" height="30" as="geometry" />
        </mxCell>
        <mxCell id="_nSsII40wZUim3STC4YT-25" style="edgeStyle=orthogonalEdgeStyle;rounded=0;orthogonalLoop=1;jettySize=auto;html=1;exitX=0.25;exitY=1;exitDx=0;exitDy=0;entryX=0.995;entryY=0.549;entryDx=0;entryDy=0;entryPerimeter=0;" parent="1" source="_nSsII40wZUim3STC4YT-22" target="9iZS7P3XMjoNwgaLE-xn-1" edge="1">
          <mxGeometry relative="1" as="geometry" />
        </mxCell>
        <mxCell id="_nSsII40wZUim3STC4YT-26" value="&lt;font style=&quot;font-size: 17px;&quot;&gt;Managments&lt;/font&gt;" style="text;html=1;align=center;verticalAlign=middle;resizable=0;points=[];autosize=1;strokeColor=none;fillColor=none;" parent="1" vertex="1">
          <mxGeometry x="540" y="535" width="120" height="30" as="geometry" />
        </mxCell>
        <mxCell id="_nSsII40wZUim3STC4YT-31" style="edgeStyle=orthogonalEdgeStyle;rounded=0;orthogonalLoop=1;jettySize=auto;html=1;exitX=0.25;exitY=0;exitDx=0;exitDy=0;" parent="1" source="_nSsII40wZUim3STC4YT-27" target="9iZS7P3XMjoNwgaLE-xn-1" edge="1">
          <mxGeometry relative="1" as="geometry">
            <mxPoint x="669.9444444444445" y="640" as="targetPoint" />
            <Array as="points">
              <mxPoint x="670" y="640" />
            </Array>
          </mxGeometry>
        </mxCell>
        <mxCell id="_nSsII40wZUim3STC4YT-32" style="edgeStyle=orthogonalEdgeStyle;rounded=0;orthogonalLoop=1;jettySize=auto;html=1;exitX=0;exitY=0.25;exitDx=0;exitDy=0;entryX=0.576;entryY=0.991;entryDx=0;entryDy=0;entryPerimeter=0;" parent="1" source="_nSsII40wZUim3STC4YT-27" target="9iZS7P3XMjoNwgaLE-xn-1" edge="1">
          <mxGeometry relative="1" as="geometry">
            <mxPoint x="440" y="680" as="targetPoint" />
            <Array as="points">
              <mxPoint x="439" y="695" />
            </Array>
          </mxGeometry>
        </mxCell>
        <mxCell id="_nSsII40wZUim3STC4YT-36" style="edgeStyle=orthogonalEdgeStyle;rounded=0;orthogonalLoop=1;jettySize=auto;html=1;exitX=0;exitY=0.75;exitDx=0;exitDy=0;entryX=0.471;entryY=0.997;entryDx=0;entryDy=0;entryPerimeter=0;" parent="1" source="_nSsII40wZUim3STC4YT-27" target="9iZS7P3XMjoNwgaLE-xn-1" edge="1">
          <mxGeometry relative="1" as="geometry">
            <mxPoint x="420" y="724.8918918918919" as="targetPoint" />
            <Array as="points">
              <mxPoint x="420" y="725" />
            </Array>
          </mxGeometry>
        </mxCell>
        <mxCell id="_nSsII40wZUim3STC4YT-27" value="&lt;font style=&quot;font-size: 20px;&quot;&gt;Seller&lt;/font&gt;" style="rounded=0;whiteSpace=wrap;html=1;" parent="1" vertex="1">
          <mxGeometry x="640" y="680" width="120" height="60" as="geometry" />
        </mxCell>
        <mxCell id="_nSsII40wZUim3STC4YT-29" style="edgeStyle=orthogonalEdgeStyle;rounded=0;orthogonalLoop=1;jettySize=auto;html=1;exitX=0.445;exitY=0.001;exitDx=0;exitDy=0;entryX=0.927;entryY=0.765;entryDx=0;entryDy=0;entryPerimeter=0;exitPerimeter=0;" parent="1" target="9iZS7P3XMjoNwgaLE-xn-1" edge="1">
          <mxGeometry relative="1" as="geometry">
            <mxPoint x="703.4" y="680.0000000000001" as="sourcePoint" />
            <mxPoint x="549.9999999999999" y="577.9400000000002" as="targetPoint" />
            <Array as="points">
              <mxPoint x="703" y="600" />
              <mxPoint x="550" y="600" />
            </Array>
          </mxGeometry>
        </mxCell>
        <mxCell id="_nSsII40wZUim3STC4YT-37" value="&lt;font style=&quot;font-size: 17px;&quot;&gt;Registration&lt;/font&gt;" style="text;html=1;align=center;verticalAlign=middle;resizable=0;points=[];autosize=1;strokeColor=none;fillColor=none;" parent="1" vertex="1">
          <mxGeometry x="555" y="570" width="110" height="30" as="geometry" />
        </mxCell>
        <mxCell id="_nSsII40wZUim3STC4YT-38" value="&lt;font style=&quot;font-size: 17px;&quot;&gt;Login&lt;/font&gt;" style="text;html=1;align=center;verticalAlign=middle;resizable=0;points=[];autosize=1;strokeColor=none;fillColor=none;" parent="1" vertex="1">
          <mxGeometry x="535" y="610" width="70" height="30" as="geometry" />
        </mxCell>
        <mxCell id="_nSsII40wZUim3STC4YT-39" value="&lt;font style=&quot;font-size: 17px;&quot;&gt;Add product&lt;/font&gt;" style="text;html=1;align=center;verticalAlign=middle;resizable=0;points=[];autosize=1;strokeColor=none;fillColor=none;" parent="1" vertex="1">
          <mxGeometry x="480" y="660" width="120" height="30" as="geometry" />
        </mxCell>
        <mxCell id="_nSsII40wZUim3STC4YT-40" value="&lt;font style=&quot;font-size: 17px;&quot;&gt;Manage Order&lt;/font&gt;" style="text;html=1;align=center;verticalAlign=middle;resizable=0;points=[];autosize=1;strokeColor=none;fillColor=none;" parent="1" vertex="1">
          <mxGeometry x="455" y="698" width="130" height="30" as="geometry" />
        </mxCell>
      </root>
    </mxGraphModel>
  </diagram>
</mxfile>
